<svg version="1.1" id="Layer_1" xmlns="http://www.w3.org/2000/svg" xmlns:xlink="http://www.w3.org/1999/xlink" x="0px" y="0px" width="100%" viewBox="0 0 496 496" enable-background="new 0 0 496 496" xml:space="preserve">
  <path fill="#000000" opacity="1.000000" stroke="none" d="
M209.169998,276.171021 
	C198.297226,269.175659 196.048859,262.828735 200.014420,251.165863 
	C204.297440,238.569382 207.856415,236.002945 221.370300,235.995300 
	C255.853592,235.975830 290.337067,235.936798 324.820160,236.023590 
	C337.795685,236.056244 347.214386,245.300369 347.257782,257.662323 
	C347.298401,269.235718 338.277802,278.264709 326.165802,278.319092 
	C301.011902,278.432037 275.857086,278.331696 250.702637,278.329529 
	C240.707489,278.328644 230.711853,278.302032 220.717468,278.397034 
	C216.823288,278.434052 213.083160,277.945435 209.169998,276.171021 
M337.532410,269.154144 
	C345.237793,262.313904 345.165039,251.338959 337.174683,245.420303 
	C332.892517,242.248398 327.851440,241.295441 322.524109,241.307816 
	C289.862549,241.383713 257.200836,241.369064 224.539154,241.386307 
	C222.706192,241.387268 220.866028,241.301147 219.041473,241.429565 
	C209.442230,242.105301 202.953293,248.521515 203.012527,257.209198 
	C203.071716,265.893829 209.664734,272.098206 219.377609,272.589355 
	C220.541565,272.648193 221.710114,272.624329 222.876541,272.624115 
	C255.704895,272.618286 288.533356,272.562225 321.361481,272.650940 
	C326.809296,272.665710 331.963104,271.849030 337.532410,269.154144 
z"/>
  <path fill="#000000" opacity="1.000000" stroke="none" d="
M361.372192,240.367920 
	C363.148163,242.470901 363.530792,240.095047 364.245728,239.550400 
	C371.387268,234.110138 381.335876,233.589981 389.071289,238.416199 
	C396.195770,242.861252 399.870789,252.255234 398.175964,261.689331 
	C396.569885,270.629486 390.259827,276.640778 381.256012,278.475220 
	C373.907776,279.972382 367.875214,277.565979 361.341461,272.291443 
	C361.341461,278.559418 361.353424,283.937256 361.335876,289.315002 
	C361.328186,291.676727 361.559601,294.235229 357.962463,294.103821 
	C354.827454,293.989227 354.777161,291.752380 354.776276,289.502350 
	C354.769806,273.007812 354.772919,256.513275 354.775787,240.018753 
	C354.776184,237.720474 354.910522,235.690750 358.130981,235.682953 
	C361.461487,235.674881 361.318726,237.850967 361.372192,240.367920 
M389.484100,248.175507 
	C384.458282,241.783737 378.237152,239.653229 371.601746,242.051407 
	C365.195282,244.366852 361.114655,250.584961 361.389160,257.613342 
	C361.661072,264.574524 365.861969,270.348053 372.322266,272.111420 
	C378.197266,273.715088 383.703827,272.653076 387.765839,267.929077 
	C392.708435,262.181091 392.988159,255.632568 389.484100,248.175507 
z"/>
  <path fill="#000000" opacity="1.000000" stroke="none" d="
M158.695801,239.563049 
	C168.824509,233.077881 181.118149,233.993362 188.351883,241.511978 
	C195.364609,248.800873 196.272537,260.927917 190.463501,269.716034 
	C185.440292,277.315277 175.176529,280.739258 165.654984,277.992096 
	C156.931046,275.475067 151.008347,267.513580 150.611603,258.359406 
	C150.286179,250.850723 152.521698,244.605606 158.695801,239.563049 
M177.990829,271.723175 
	C179.146286,271.080566 180.396744,270.563690 181.441284,269.774292 
	C186.909042,265.642303 188.850266,257.541138 186.156204,250.424576 
	C183.861588,244.363190 178.310196,240.990204 171.152313,241.308319 
	C164.574509,241.600632 159.435074,245.783890 157.782562,252.644608 
	C154.662704,265.597046 165.184555,275.726135 177.990829,271.723175 
z"/>
  <path fill="#000000" opacity="1.000000" stroke="none" d="
M108.708481,258.999451 
	C108.708000,247.844727 108.695862,237.189911 108.716644,226.535172 
	C108.721161,224.217438 108.386307,221.770370 112.013893,221.658310 
	C115.736694,221.543289 115.991570,223.928680 115.998085,226.556381 
	C116.031113,239.874588 116.187256,253.196228 115.928833,266.509460 
	C115.834915,271.347870 117.475060,272.917450 122.256973,272.678619 
	C129.230911,272.330353 136.236588,272.596252 143.228455,272.641571 
	C145.085770,272.653625 147.036469,272.654785 147.117126,275.332733 
	C147.206604,278.304047 145.135559,278.360779 143.052139,278.363464 
	C133.063324,278.376251 123.073738,278.303925 113.086128,278.414734 
	C109.864578,278.450439 108.603096,277.163300 108.687996,273.982208 
	C108.816750,269.157837 108.713394,264.327301 108.708481,258.999451 
z"/>
</svg>
