<?xml version="1.0" encoding="UTF-8" standalone="no"?>
<svg
   version="1.1"
   id="Layer_1"
   x="0px"
   y="0px"
   width="100%"
   viewBox="0 0 500 500"
   enable-background="new 0 0 500 500"
   xml:space="preserve"
   sodipodi:docname="nav-logo.svg"
   inkscape:version="1.4.2 (f4327f4, 2025-05-13)"
   xmlns:inkscape="http://www.inkscape.org/namespaces/inkscape"
   xmlns:sodipodi="http://sodipodi.sourceforge.net/DTD/sodipodi-0.dtd"
   xmlns="http://www.w3.org/2000/svg"
   xmlns:svg="http://www.w3.org/2000/svg"><defs
   id="defs8" /><sodipodi:namedview
   id="namedview8"
   pagecolor="#505050"
   bordercolor="#ffffff"
   borderopacity="1"
   inkscape:showpageshadow="0"
   inkscape:pageopacity="0"
   inkscape:pagecheckerboard="1"
   inkscape:deskcolor="#505050"
   inkscape:zoom="1.546"
   inkscape:cx="250"
   inkscape:cy="250"
   inkscape:window-width="1920"
   inkscape:window-height="991"
   inkscape:window-x="-9"
   inkscape:window-y="-9"
   inkscape:window-maximized="1"
   inkscape:current-layer="Layer_1" />

<path
   fill="#37b3fa"
   opacity="1"
   stroke="none"
   d="m 260.5749,323.19842 c -23.00731,-0.0124 -45.18634,0.40789 -67.3561,-0.19163 -14.17596,-0.38332 -25.31193,-11.74676 -31.28234,-33.96348 -5.70341,-21.22295 -4.74647,-42.72627 3.5665,-62.15412 6.34403,-14.82619 15.10469,-22.27823 25.69446,-22.30516 61.25877,-0.15575 122.51896,-0.43785 183.77607,0.13891 19.53749,0.18396 32.25653,24.98541 32.19532,59.66205 -0.0583,33.01183 -14.31109,58.04745 -34.33316,58.61944 -24.10893,0.68885 -48.22938,0.18474 -72.34481,0.19313 -13.02792,0.005 -26.05583,8e-4 -39.91594,8e-4 M 361.16097,217.61221 c -54.04596,6e-5 -108.09188,-0.0195 -162.13781,0.0444 -3.59081,0.004 -7.25603,-0.0351 -10.75815,1.11064 -11.07358,3.62248 -19.67627,19.17515 -21.13855,37.43683 -1.58833,19.83549 3.25901,38.28816 13.5763,46.44308 5.07806,4.0138 11.1611,5.88728 16.79623,5.92848 57.09364,0.41672 114.18877,0.29225 171.28332,0.16294 3.55882,-0.008 7.20133,-0.71963 10.65963,-2.14744 11.82631,-4.88267 19.55732,-21.52333 19.89688,-42.09171 0.34096,-20.65497 -7.45861,-39.64564 -19.25952,-44.50828 -5.55757,-2.29 -11.51849,-1.67659 -18.91833,-2.3789 z"
   id="path2"
   style="stroke-width:2.18418" />
<path
   fill="#f0b254"
   opacity="1"
   stroke="none"
   d="m 491.17034,247.9027 c 3.33279,50.21147 -13.57451,82.19952 -39.67929,75.17484 -6.52991,-1.75723 -12.60461,-8.5315 -19.99972,-13.79019 0,18.17362 0,37.55613 0,57.75687 -4.13161,0 -6.75355,0 -10.01542,0 0,-54.25664 0,-108.3687 0,-163.65657 2.50383,-0.29478 5.11191,-0.60181 8.31127,-0.97847 0.27803,6.79936 0.5224,12.77406 0.8422,20.59471 10.98059,-20.69207 23.98752,-25.86984 38.60892,-17.82305 11.78988,6.48844 18.76524,21.05368 21.93204,42.72186 m -59.42169,-0.005 c -3.08517,19.43403 -1.24793,37.0992 7.50675,50.96469 7.59036,12.0214 16.9146,13.39614 26.38426,7.94568 11.82335,-6.80505 17.72595,-25.46643 16.48905,-50.2594 -1.00667,-20.17652 -9.37626,-36.39669 -20.39403,-39.52343 -13.81521,-3.92059 -23.35434,5.281 -29.98603,30.87246 z"
   id="path3"
   style="stroke-width:2.18418" />
<path
   fill="#f361bb"
   opacity="1"
   stroke="none"
   d="m 132.6315,207.82161 c 16.57062,16.9125 23.04275,45.10314 17.69427,75.05075 -4.68308,26.22175 -18.82323,42.46514 -35.84203,41.17316 -16.723538,-1.26943 -29.77007,-19.50017 -32.968053,-47.4475 -2.630825,-22.99103 0.217624,-44.11381 10.836246,-59.85076 11.852897,-17.56632 25.460097,-18.93361 40.279567,-8.92565 m -40.483227,37.25228 c -0.419673,9.38706 -1.799209,19.00649 -1.055798,28.1119 1.470354,18.00936 7.802297,30.71137 18.187725,34.90055 10.23289,4.12767 20.11649,1.35086 26.98889,-14.00037 7.1623,-15.99898 7.99785,-34.10557 3.4187,-52.55579 -4.10183,-16.52728 -11.77979,-24.57343 -22.12015,-25.17868 -11.72481,-0.68629 -20.176198,7.91077 -25.419367,28.72239 z"
   id="path4"
   style="stroke-width:2.18418" />
<path
   fill="#f3f3f3"
   opacity="1"
   stroke="none"
   d="m 21.311168,251.51752 c -1.3e-5,19.45468 -1.3e-5,37.47611 -1.3e-5,56.55019 17.643025,0 34.451661,0 52.035007,0 0.146312,5.32815 0.264831,9.64573 0.400752,14.59653 -20.823661,0 -41.011396,0 -61.798574,0 0,-52.68241 0,-105.40251 0,-159.37798 2.675954,-0.25297 5.557847,-0.52537 9.362842,-0.88505 0,29.80622 0,58.74462 -1.4e-5,89.11631 z"
   id="path5"
   style="stroke-width:2.18418" />
<path
   fill="#010202"
   opacity="1"
   stroke="none"
   d="m 361.97178,217.61234 c 6.58903,0.70228 12.54995,0.089 18.10752,2.37884 11.80091,4.86264 19.60048,23.85331 19.25952,44.50828 -0.33956,20.56838 -8.07057,37.20905 -19.89688,42.09171 -3.4583,1.42781 -7.10081,2.13943 -10.65963,2.14744 -57.09455,0.12928 -114.18968,0.25378 -171.28332,-0.16294 -5.63513,-0.0411 -11.71817,-1.91468 -16.79623,-5.92846 -10.31729,-8.15493 -15.16463,-26.6076 -13.5763,-46.4431 1.46228,-18.26166 10.06497,-33.81435 21.13855,-37.43682 3.50212,-1.14567 7.16734,-1.10641 10.75815,-1.11065 54.04593,-0.0638 108.09185,-0.0441 162.94862,-0.0441 z"
   id="path6"
   style="stroke-width:2.18418" />
<path
   fill="#030201"
   opacity="1"
   stroke="none"
   d="m 431.89843,246.77894 c 6.48191,-24.47329 16.02104,-33.67488 29.83625,-29.75429 11.01777,3.12676 19.38736,19.34691 20.39403,39.52344 1.2369,24.79297 -4.6657,43.45435 -16.48905,50.25939 -9.46966,5.45045 -18.7939,4.07573 -26.38426,-7.94569 -8.75468,-13.86549 -10.59192,-31.53066 -7.35697,-52.08285 z"
   id="path7"
   style="stroke-width:2.18418" />
<path
   fill="#030201"
   opacity="1"
   stroke="none"
   d="m 92.342126,243.9707 c 5.049316,-19.70843 13.500704,-28.30549 25.225514,-27.6192 10.34036,0.60525 18.01832,8.6514 22.12015,25.17868 4.57915,18.45022 3.7436,36.55681 -3.4187,52.55579 -6.8724,15.35123 -16.756,18.12804 -26.98889,14.00037 -10.385428,-4.18918 -16.717371,-16.89119 -18.187725,-34.90055 -0.743411,-9.10541 0.636125,-18.72484 1.249651,-29.21509 z"
   id="path8"
   style="stroke-width:2.18418" />
</svg>
